<svg version="1.1" id="Capa_1" xmlns="http://www.w3.org/2000/svg" xmlns:xlink="http://www.w3.org/1999/xlink" x="0px" y="0px" viewBox="0 0 512 512" style="enable-background:new 0 0 512 512;" xml:space="preserve">
<g>
	<g>
		
			<line style="fill:none;stroke:#000000;stroke-width:15;stroke-linecap:round;stroke-linejoin:round;stroke-miterlimit:10;" x1="123.165" y1="446.571" x2="56.563" y2="446.571"/>
		<g>
			<g>
				
					<line style="fill:none;stroke:#000000;stroke-width:15;stroke-linecap:round;stroke-linejoin:round;stroke-miterlimit:10;" x1="89.742" y1="209.816" x2="130.565" y2="209.816"/>
				
					<line style="fill:none;stroke:#000000;stroke-width:15;stroke-linecap:round;stroke-linejoin:round;stroke-miterlimit:10;" x1="89.742" y1="249.778" x2="130.565" y2="249.778"/>
				
					<line style="fill:none;stroke:#000000;stroke-width:15;stroke-linecap:round;stroke-linejoin:round;stroke-miterlimit:10;" x1="89.742" y1="289.739" x2="130.565" y2="289.739"/>
			</g>
			<g>
				
					<line style="fill:none;stroke:#000000;stroke-width:15;stroke-linecap:round;stroke-linejoin:round;stroke-miterlimit:10;" x1="49.162" y1="209.816" x2="53.447" y2="209.816"/>
				
					<line style="fill:none;stroke:#000000;stroke-width:15;stroke-linecap:round;stroke-linejoin:round;stroke-miterlimit:10;" x1="49.162" y1="249.778" x2="53.447" y2="249.778"/>
				
					<line style="fill:none;stroke:#000000;stroke-width:15;stroke-linecap:round;stroke-linejoin:round;stroke-miterlimit:10;" x1="49.162" y1="289.739" x2="53.447" y2="289.739"/>
			</g>
		</g>
		<g>
			<g>
				<g>
					
						<line style="fill:none;stroke:#000000;stroke-width:15;stroke-linecap:round;stroke-linejoin:round;stroke-miterlimit:10;" x1="84.339" y1="7.5" x2="84.339" y2="66.259"/>
				</g>
				<g>
					<path style="fill:none;stroke:#000000;stroke-width:15;stroke-linecap:round;stroke-linejoin:round;stroke-miterlimit:10;" d="&#10;&#9;&#9;&#9;&#9;&#9;&#9;M12.161,7.5v40.433c0,6.886,3.416,11.522,9.218,15.229c2.826,1.806,6.395,3.092,10.831,3.098&#10;&#9;&#9;&#9;&#9;&#9;&#9;c3.841,0.005,7.052-0.884,9.706-2.221c6.762-3.405,11.074-8.577,11.074-16.148V7.5"/>
				</g>
			</g>
			<g>
				<g>
					
						<line style="fill:none;stroke:#000000;stroke-width:15;stroke-linecap:round;stroke-linejoin:round;stroke-miterlimit:10;" x1="242.971" y1="7.5" x2="284.307" y2="66.259"/>
					
						<line style="fill:none;stroke:#000000;stroke-width:15;stroke-linecap:round;stroke-linejoin:round;stroke-miterlimit:10;" x1="281.398" y1="7.5" x2="240.004" y2="66.259"/>
				</g>
				<g>
					<path style="fill:none;stroke:#000000;stroke-width:15;stroke-linecap:round;stroke-linejoin:round;stroke-miterlimit:10;" d="&#10;&#9;&#9;&#9;&#9;&#9;&#9;M175.414,7.5v40.433c0,6.886,3.416,11.522,9.218,15.229c2.826,1.806,6.395,3.092,10.831,3.098&#10;&#9;&#9;&#9;&#9;&#9;&#9;c3.841,0.005,7.052-0.884,9.706-2.221c6.762-3.405,11.074-8.577,11.074-16.148V7.5"/>
				</g>
			</g>
			<g>
				
					<line style="fill:none;stroke:#000000;stroke-width:15;stroke-linecap:round;stroke-linejoin:round;stroke-miterlimit:10;" x1="143.466" y1="7.5" x2="118.618" y2="66.259"/>
			</g>
		</g>
		
			<line style="fill:none;stroke:#000000;stroke-width:15;stroke-linecap:round;stroke-linejoin:round;stroke-miterlimit:10;" x1="12.161" y1="114.341" x2="499.839" y2="114.341"/>
		<g>
			
				<line style="fill:none;stroke:#000000;stroke-width:15;stroke-linecap:round;stroke-linejoin:round;stroke-miterlimit:10;" x1="447.554" y1="7.7" x2="499.839" y2="7.7"/>
			
				<line style="fill:none;stroke:#000000;stroke-width:15;stroke-linecap:round;stroke-linejoin:round;stroke-miterlimit:10;" x1="499.839" y1="36.879" x2="447.554" y2="36.879"/>
			
				<line style="fill:none;stroke:#000000;stroke-width:15;stroke-linecap:round;stroke-linejoin:round;stroke-miterlimit:10;" x1="499.839" y1="66.059" x2="447.554" y2="66.059"/>
		</g>
		<path style="fill:none;stroke:#000000;stroke-width:15;stroke-linecap:round;stroke-linejoin:round;stroke-miterlimit:10;" d="&#10;&#9;&#9;&#9;M479.839,504.5H234.188c-11.046,0-20-8.954-20-20V182.607c0-11.046,8.954-20,20-20h245.651c11.046,0,20,8.954,20,20V484.5&#10;&#9;&#9;&#9;C499.839,495.546,490.885,504.5,479.839,504.5z"/>
		<path style="fill:none;stroke:#000000;stroke-width:15;stroke-linecap:round;stroke-linejoin:round;stroke-miterlimit:10;" d="&#10;&#9;&#9;&#9;M53,388.643H32.161c-11.046,0-20,8.954-20,20V484.5c0,11.046,8.954,20,20,20h115.406c11.046,0,20-8.954,20-20v-75.857&#10;&#9;&#9;&#9;c0-11.046-8.954-20-20-20H88"/>
		<path style="fill:none;stroke:#000000;stroke-width:15;stroke-linecap:round;stroke-linejoin:round;stroke-miterlimit:10;" d="&#10;&#9;&#9;&#9;M12.161,250.211v66.737c0,11.046,8.954,20,20,20h115.406c11.046,0,20-8.954,20-20V182.607c0-11.046-8.954-20-20-20H32.161&#10;&#9;&#9;&#9;c-11.046,0-20,8.954-20,20v32.604"/>
		<path style="fill:none;stroke:#000000;stroke-width:15;stroke-linecap:round;stroke-linejoin:round;stroke-miterlimit:10;" d="&#10;&#9;&#9;&#9;M287.932,305.831c7.801,30.89,35.768,53.754,69.082,53.754c39.353,0,71.254-31.901,71.254-71.254&#10;&#9;&#9;&#9;c0-39.353-31.901-71.254-71.254-71.254c-33.313,0-61.28,22.864-69.082,53.754"/>
		<path style="fill:none;stroke:#000000;stroke-width:15;stroke-linecap:round;stroke-linejoin:round;stroke-miterlimit:10;" d="&#10;&#9;&#9;&#9;M422.136,452.698H291.891c-13.079,0-23.681-10.602-23.681-23.681v0c0-13.079,10.602-23.681,23.681-23.681h130.245&#10;&#9;&#9;&#9;c13.079,0,23.681,10.602,23.681,23.681v0C445.817,442.096,435.215,452.698,422.136,452.698z"/>
	</g>
</g>
<g>
</g>
<g>
</g>
<g>
</g>
<g>
</g>
<g>
</g>
<g>
</g>
<g>
</g>
<g>
</g>
<g>
</g>
<g>
</g>
<g>
</g>
<g>
</g>
<g>
</g>
<g>
</g>
<g>
</g>
</svg>